<?xml version="1.0" encoding="UTF-8" standalone="no"?>
<!-- Created with Inkscape (http://www.inkscape.org/) -->

<svg
   xmlns:dc="http://purl.org/dc/elements/1.1/"
   xmlns:cc="http://creativecommons.org/ns#"
   xmlns:rdf="http://www.w3.org/1999/02/22-rdf-syntax-ns#"
   xmlns:svg="http://www.w3.org/2000/svg"
   xmlns="http://www.w3.org/2000/svg"
   xmlns:sodipodi="http://sodipodi.sourceforge.net/DTD/sodipodi-0.dtd"
   xmlns:inkscape="http://www.inkscape.org/namespaces/inkscape"
   width="72.248886mm"
   height="72.248886mm"
   viewBox="0 0 255.99998 255.99999"
   id="svg2"
   version="1.1"
   inkscape:version="0.91 r13725"
   sodipodi:docname="battleship.svg">
  <defs
     id="defs4" />
  <sodipodi:namedview
     id="base"
     pagecolor="#ffffff"
     bordercolor="#666666"
     borderopacity="1.0"
     inkscape:pageopacity="0.0"
     inkscape:pageshadow="2"
     inkscape:zoom="2.5024952"
     inkscape:cx="128"
     inkscape:cy="128"
     inkscape:document-units="px"
     inkscape:current-layer="layer1"
     showgrid="false"
     fit-margin-top="0"
     fit-margin-left="0"
     fit-margin-right="0"
     fit-margin-bottom="0"
     inkscape:window-width="1855"
     inkscape:window-height="1057"
     inkscape:window-x="57"
     inkscape:window-y="-8"
     inkscape:window-maximized="1" />
  <metadata
     id="metadata7">
    <rdf:RDF>
      <cc:Work
         rdf:about="">
        <dc:format>image/svg+xml</dc:format>
        <dc:type
           rdf:resource="http://purl.org/dc/dcmitype/StillImage" />
        <dc:title></dc:title>
      </cc:Work>
    </rdf:RDF>
  </metadata>
  <g
     inkscape:label="Ebene 1"
     inkscape:groupmode="layer"
     id="layer1"
     transform="translate(2136.734,-64.954663)">
    <g
       id="g4410"
       transform="matrix(2.0595825,0,0,2.0595825,2264.0459,-340.07796)">
      <circle
         r="62.148518"
         cy="258.80615"
         cx="-2074.5854"
         id="path4331"
         style="opacity:1;fill:#216778;fill-opacity:1;stroke:none;stroke-width:1;stroke-linecap:round;stroke-linejoin:round;stroke-miterlimit:4;stroke-dasharray:0, 1, 2, 3, 4, 5, 6, 7, 8, 9, 10, 11, 12, 13, 14;stroke-dashoffset:0;stroke-opacity:0" />
      <path
         id="rect4322"
         transform="translate(-2048.5713,325.50507)"
         d="m 6.8339844,-56.351562 -79.7441404,22.693359 0,7.625 a 62.148518,62.148518 0 0 0 34.273437,20.173828 c 8.370337,-2.0850095 16.125283,-5.330849 20.332031,-10.384766 12.2531005,-14.72067 25.1386724,-40.107421 25.1386724,-40.107421 z"
         style="opacity:1;fill:#d45500;fill-opacity:1;stroke:none;stroke-width:1;stroke-linecap:round;stroke-linejoin:round;stroke-miterlimit:4;stroke-dasharray:0, 1, 2, 3, 4, 5, 6, 7, 8, 9, 10, 11, 12, 13, 14;stroke-dashoffset:0;stroke-opacity:0"
         inkscape:connector-curvature="0" />
      <path
         sodipodi:nodetypes="csscccssc"
         inkscape:connector-curvature="0"
         id="path4318"
         d="m -2041.7373,269.15375 c 0.9942,-2.83731 3.7497,-11.45314 1.762,-14.86756 -2.556,-4.39067 -6.7034,-8.04861 -16.8234,-8.04861 l -24.326,0 -20.1783,22.9162 -20.1783,22.91621 24.3259,0 c 10.12,0 20.7093,-3.65794 30.9975,-8.04861 8.0007,-3.41442 20.4182,-12.03031 24.4206,-14.86763 z"
         style="opacity:1;fill:#e67e22;fill-opacity:1;stroke:none;stroke-width:1;stroke-linecap:round;stroke-linejoin:round;stroke-miterlimit:4;stroke-dasharray:0, 1, 2, 3, 4, 5, 6, 7, 8, 9, 10, 11, 12, 13, 14;stroke-dashoffset:0;stroke-opacity:0" />
      <ellipse
         ry="13.186832"
         rx="14.603012"
         transform="matrix(-0.66085065,0.75051743,-1,0,0,0)"
         cy="1832.306"
         cx="358.6243"
         id="circle4320"
         style="opacity:1;fill:#34495e;fill-opacity:1;stroke:none;stroke-width:1;stroke-linecap:round;stroke-linejoin:round;stroke-miterlimit:4;stroke-dasharray:0, 1, 2, 3, 4, 5, 6, 7, 8, 9, 10, 11, 12, 13, 14;stroke-dashoffset:0;stroke-opacity:0" />
      <path
         style="opacity:0.5;fill:#ececec;fill-opacity:1;stroke:none;stroke-width:1;stroke-linecap:round;stroke-linejoin:round;stroke-miterlimit:4;stroke-dasharray:0, 1, 2, 3, 4, 5, 6, 7, 8, 9, 10, 11, 12, 13, 14;stroke-dashoffset:0;stroke-opacity:0"
         d="m -2078.8328,273.89164 c 0,0 -4.9123,2.10821 -7.2719,1.0599 -2.6923,-1.19616 -6.0693,-7.59235 -6.0693,-7.59235 0,0 -6.8531,-1.76873 -8.5827,-5.03103 -1.3665,-2.57745 -0.064,-8.93661 -0.064,-8.93661 0,0 -0.3049,-8.0419 1.8049,-10.37978 1.7911,-1.98484 7.3854,-1.0696 7.3854,-1.0696 0,0 2.4504,-3.66642 5.6534,-3.28761 2.88,0.34059 7.3084,4.86906 7.3084,4.86906 0,0 4.4739,0.79501 5.5033,2.89498 0.7729,1.5766 -0.4766,5.28278 -0.4766,5.28278 0,0 4.9003,8.63391 4.0245,12.95816 -0.9675,4.77707 -9.215,9.2321 -9.215,9.2321 z"
         id="path4344"
         inkscape:connector-curvature="0"
         sodipodi:nodetypes="cacacacscacac" />
      <path
         sodipodi:nodetypes="cacacacscacac"
         inkscape:connector-curvature="0"
         id="path4346"
         d="m -2063.575,265.79799 c 0,0 -6.4216,-0.2641 -8.7751,-2.65785 -2.6856,-2.73142 -4.3176,-11.54239 -4.3176,-11.54239 0,0 -7.2882,-5.5489 -8.1289,-10.04663 -0.6641,-3.55349 3.0954,-9.86333 3.0954,-9.86333 0,0 2.5001,-9.0058 5.7661,-10.46793 2.7728,-1.24138 8.9097,2.70687 8.9097,2.70687 0,0 4.1308,-2.74429 7.6959,-0.64349 3.2058,1.88907 6.7146,9.19849 6.7146,9.19849 0,0 4.8855,3.22687 5.3297,6.07799 0.3336,2.14054 -2.424,5.56008 -2.424,5.56008 0,0 2.5976,12.07319 0.052,16.36899 -2.8119,4.74563 -13.9181,5.3092 -13.9181,5.3092 z"
         style="opacity:0.5;fill:#ececec;fill-opacity:1;stroke:none;stroke-width:1;stroke-linecap:round;stroke-linejoin:round;stroke-miterlimit:4;stroke-dasharray:0, 1, 2, 3, 4, 5, 6, 7, 8, 9, 10, 11, 12, 13, 14;stroke-dashoffset:0;stroke-opacity:0" />
      <path
         style="opacity:0.5;fill:#ececec;fill-opacity:1;stroke:none;stroke-width:1;stroke-linecap:round;stroke-linejoin:round;stroke-miterlimit:4;stroke-dasharray:0, 1, 2, 3, 4, 5, 6, 7, 8, 9, 10, 11, 12, 13, 14;stroke-dashoffset:0;stroke-opacity:0"
         d="m -2083.478,243.47504 c 0,0 -4.6947,-0.19306 -6.4153,-1.94307 -1.9635,-1.99693 -3.1566,-8.43848 -3.1566,-8.43848 0,0 -5.3282,-4.05668 -5.9429,-7.34493 -0.4855,-2.59787 2.2631,-7.21088 2.2631,-7.21088 0,0 1.8277,-6.58401 4.2155,-7.65294 2.027,-0.90756 6.5137,1.97895 6.5137,1.97895 0,0 3.0199,-2.00628 5.6263,-0.47045 2.3437,1.38101 4.9089,6.72488 4.9089,6.72488 0,0 3.5717,2.35909 3.8965,4.44349 0.2439,1.56493 -1.7722,4.06486 -1.7722,4.06486 0,0 1.8991,8.82652 0.038,11.96714 -2.0558,3.46943 -10.1753,3.88143 -10.1753,3.88143 z"
         id="path4348"
         inkscape:connector-curvature="0"
         sodipodi:nodetypes="cacacacscacac" />
      <path
         sodipodi:nodetypes="cacacacscacac"
         inkscape:connector-curvature="0"
         id="path4350"
         d="m -2060.2895,262.88947 c 0,0 -4.5501,4.40225 -7.3285,4.26131 -3.1705,-0.16083 -8.5555,-5.72076 -8.5555,-5.72076 0,0 -7.7027,0.98694 -10.4569,-1.84571 -2.1758,-2.23812 -2.6382,-9.75313 -2.6382,-9.75313 0,0 -2.6336,-8.67118 -1.0915,-12.12964 1.3091,-2.93618 7.4449,-4.3203 7.4449,-4.3203 0,0 1.5176,-5.05779 4.9887,-6.00918 3.1212,-0.85563 9.0727,2.21188 9.0727,2.21188 0,0 4.925,-1.03795 6.6098,0.82127 1.2649,1.39583 1.0194,5.98483 1.0194,5.98483 0,0 7.6278,7.35936 7.9525,12.46544 0.3585,5.64084 -7.0174,14.03399 -7.0174,14.03399 z"
         style="opacity:0.5;fill:#ececec;fill-opacity:1;stroke:none;stroke-width:1;stroke-linecap:round;stroke-linejoin:round;stroke-miterlimit:4;stroke-dasharray:0, 1, 2, 3, 4, 5, 6, 7, 8, 9, 10, 11, 12, 13, 14;stroke-dashoffset:0;stroke-opacity:0" />
      <g
         id="g4399">
        <path
           sodipodi:nodetypes="asacaacsacaa"
           inkscape:connector-curvature="0"
           id="path4354"
           d="m -2061.1662,273.26381 c -4.4141,4.01062 -9.837,6.78813 -16.6883,2.98095 -6.8513,-3.80719 -6.9888,-13.9385 -7.5254,-21.58814 -0.5839,-8.32153 4.8669,-23.82946 4.8669,-23.82946 0,0 -3.9295,22.63117 2.5383,23.61604 4.4271,0.6741 1.6681,-10.52914 3.3377,-15.39264 1.5992,-4.65877 6.3143,-12.96341 6.3143,-12.96341 0,0 -0.1827,10.19717 0.8565,17.56725 0.9969,7.06774 2.5501,11.59442 6.0471,11.12265 6.1298,-0.82703 4.7516,-21.568 4.7516,-21.568 0,0 5.2292,8.84682 5.2963,13.80429 0.1333,9.84817 -3.5081,20.53814 -9.795,26.25047 z"
           style="opacity:1;fill:#ffcc00;fill-opacity:1;stroke:none;stroke-width:1;stroke-linecap:round;stroke-linejoin:round;stroke-miterlimit:4;stroke-dasharray:0, 1, 2, 3, 4, 5, 6, 7, 8, 9, 10, 11, 12, 13, 14;stroke-dashoffset:0;stroke-opacity:0" />
        <path
           style="opacity:1;fill:#ff6600;fill-opacity:1;stroke:none;stroke-width:1;stroke-linecap:round;stroke-linejoin:round;stroke-miterlimit:4;stroke-dasharray:0, 1, 2, 3, 4, 5, 6, 7, 8, 9, 10, 11, 12, 13, 14;stroke-dashoffset:0;stroke-opacity:0"
           d="m -2062.4456,270.17134 c -3.9024,3.11407 -8.3229,5.74333 -14.1197,2.52216 -5.7968,-3.22121 -5.6441,-11.80863 -6.3671,-18.26539 -0.8018,-7.15984 2.4294,-21.0999 2.4294,-21.0999 0,0 -3.0913,21.51031 3.1719,22.91937 4.3012,0.96767 3.5981,-9.30502 5.1765,-14.08525 0.8603,-2.59046 2.3257,-7.90633 2.3257,-7.90633 0,0 -0.5147,3.68942 0.3646,9.92511 0.8434,5.97991 2.2966,12.22189 6.1406,12.34891 5.2587,0.17383 7.397,-16.37185 7.397,-16.37185 0,0 2.7017,8.56317 2.1285,12.74133 -0.9283,6.76677 -4.0197,13.57888 -8.6474,17.27184 z"
           id="path4356"
           inkscape:connector-curvature="0"
           sodipodi:nodetypes="asacaacsacaa" />
        <path
           sodipodi:nodetypes="asacaacsacaa"
           inkscape:connector-curvature="0"
           id="path4358"
           d="m -2062.1876,268.24621 c -3.0638,2.80072 -6.8431,4.72214 -11.6091,2.0737 -4.7661,-2.64845 -5.2613,-6.81392 -6.5635,-11.01774 -1.4077,-4.54467 -1.0192,-14.28646 -1.0192,-14.28646 0,0 1.1854,18.26358 6.6489,18.72068 2.3538,0.19692 2.2994,-4.87329 2.9278,-7.58082 0.7008,-3.01938 0.8879,-9.43881 0.8879,-9.43881 0,0 0.6011,5.97168 1.324,11.09862 0.6935,4.91667 1.7041,7.0664 4.0245,7.21498 5.0236,0.32168 8.4344,-14.52264 8.4344,-14.52264 0,0 -0.4284,4.47758 -0.9626,6.59941 -0.9848,3.91117 -1.4387,8.71268 -4.0931,11.13908 z"
           style="opacity:1;fill:#c83737;fill-opacity:1;stroke:none;stroke-width:1;stroke-linecap:round;stroke-linejoin:round;stroke-miterlimit:4;stroke-dasharray:0, 1, 2, 3, 4, 5, 6, 7, 8, 9, 10, 11, 12, 13, 14;stroke-dashoffset:0;stroke-opacity:0" />
      </g>
    </g>
  </g>
</svg>
